<?xml version="1.0" encoding="utf-8"?>
<!-- Generator: Adobe Illustrator 24.3.0, SVG Export Plug-In . SVG Version: 6.00 Build 0)  -->
<svg version="1.1" id="Layer_1" xmlns="http://www.w3.org/2000/svg" xmlns:xlink="http://www.w3.org/1999/xlink" x="0px" y="0px"
	 viewBox="0 0 1920 1080" style="enable-background:new 0 0 1920 1080;" xml:space="preserve">
<style type="text/css">
	.st0{fill:#284877;}
	.st1{fill:url(#SVGID_1_);}
	.st2{fill:#FFFFFF;}
	.st3{fill:#E0E0E0;}
</style>
<g>
	<g>
		<path class="st0" d="M755,504.9h16.8v102H755v-44.2h-43.7v44.2h-16.8v-102h16.8v41.8H755V504.9z"/>
		<path class="st0" d="M825.5,608.8c-10.7,0-19.8-3.7-27.2-11.1c-7.5-7.4-11.2-16.5-11.2-27.2s3.7-19.9,11.2-27.2
			c7.5-7.4,16.6-11.1,27.2-11.1c10.8,0,19.9,3.7,27.3,11.1c7.4,7.4,11.1,16.5,11.1,27.2s-3.7,19.9-11.1,27.2
			C845.4,605.1,836.3,608.8,825.5,608.8z M809.4,587c4.4,4.4,9.8,6.6,16.2,6.6c6.4,0,11.8-2.2,16.2-6.6c4.4-4.4,6.6-9.9,6.6-16.5
			c0-6.6-2.2-12.1-6.6-16.5c-4.4-4.4-9.8-6.6-16.2-6.6c-6.4,0-11.8,2.2-16.2,6.6c-4.4,4.4-6.6,9.9-6.6,16.5
			C802.8,577.1,805,582.6,809.4,587z"/>
		<path class="st0" d="M917.5,549.2h-18.1v35c0,3,0.7,5.2,2,6.5c1.4,1.3,3.4,2,6,2.2c2.7,0.1,6,0.1,10-0.1v14.1
			c-12,1.5-20.7,0.4-25.9-3.1c-5.2-3.5-7.9-10.1-7.9-19.6v-35h-13.4v-15.2h13.4v-15.7l15.7-4.7v20.4h18.1V549.2z"/>
		<path class="st0" d="M1003.9,608.8c-9.8,0-18.1-2.2-25-6.7c-6.8-4.5-11.6-10.6-14.4-18.4l14.4-8.5c4.1,11.5,12.5,17.2,25.4,17.2
			c6.3,0,11-1.2,14.2-3.7c3.2-2.5,4.7-5.7,4.7-9.7c0-4.2-1.7-7.3-5.1-9.5c-3.4-2.2-9.4-4.6-18.1-7.2c-4.7-1.8-8.6-3.2-11.7-4.3
			c-3.1-1.1-6.3-2.8-9.6-5.1c-3.4-2.3-5.9-5.1-7.5-8.5c-1.7-3.4-2.5-7.4-2.5-11.9c0-9,3.2-16.2,9.6-21.5c6.4-5.3,14.1-7.9,23.2-7.9
			c8.2,0,15.3,2,21.4,6c6.1,4,10.8,9.5,14.1,16.5l-14.1,8.2c-4.3-9.5-11.4-14.3-21.4-14.3c-4.9,0-8.7,1.1-11.7,3.4
			c-2.9,2.3-4.4,5.4-4.4,9.3c0,3.7,1.5,6.6,4.5,8.8c3,2.1,8.4,4.4,16.2,6.8c3.8,1.4,6.6,2.5,8.4,3.2c1.8,0.7,4.3,1.6,7.6,2.9
			c3.3,1.2,5.8,2.6,7.4,3.9c1.6,1.4,3.4,3.1,5.3,5.2c1.9,2.1,3.2,4.4,4,7.1c0.8,2.7,1.2,5.7,1.2,9c0,9.2-3.3,16.5-10,21.9
			C1023.4,606.1,1014.7,608.8,1003.9,608.8z"/>
		<path class="st0" d="M1089.9,608.8c-10.7,0-19.8-3.7-27.2-11.1c-7.5-7.4-11.2-16.5-11.2-27.2s3.7-19.9,11.2-27.2
			c7.5-7.4,16.6-11.1,27.2-11.1c10.8,0,19.9,3.7,27.3,11.1c7.4,7.4,11.1,16.5,11.1,27.2s-3.7,19.9-11.1,27.2
			C1109.8,605.1,1100.6,608.8,1089.9,608.8z M1073.7,587c4.4,4.4,9.8,6.6,16.2,6.6s11.8-2.2,16.2-6.6c4.4-4.4,6.6-9.9,6.6-16.5
			c0-6.6-2.2-12.1-6.6-16.5c-4.4-4.4-9.8-6.6-16.2-6.6s-11.8,2.2-16.2,6.6c-4.4,4.4-6.6,9.9-6.6,16.5
			C1067.1,577.1,1069.3,582.6,1073.7,587z"/>
		<path class="st0" d="M1142.6,606.9V500.5h15.7v106.4H1142.6z"/>
		<path class="st0" d="M1225.7,534.1h15.7v72.9h-15.7v-9.3c-4.8,7.5-12.3,11.2-22.6,11.2c-8.4,0-15.1-2.7-20.3-8
			c-5.1-5.3-7.7-12.7-7.7-22v-44.7h15.7v43.1c0,5.4,1.5,9.6,4.4,12.5c2.9,2.9,6.9,4.4,11.9,4.4c5.5,0,10-1.7,13.4-5.2
			c3.4-3.4,5.1-8.7,5.1-15.8V534.1z"/>
		<path class="st0" d="M1300.4,549.2h-18.1v35c0,3,0.7,5.2,2,6.5c1.4,1.3,3.4,2,6,2.2c2.7,0.1,6,0.1,10-0.1v14.1
			c-12,1.5-20.7,0.4-25.9-3.1c-5.2-3.5-7.9-10.1-7.9-19.6v-35h-13.4v-15.2h13.4v-15.7l15.7-4.7v20.4h18.1V549.2z"/>
		<path class="st0" d="M1329.6,520.1c-2,2-4.3,3-7.1,3c-2.7,0-5.1-1-7.1-3c-2-2-3-4.3-3-7.1s1-5.1,2.9-7.1c1.9-2,4.3-3,7.1-3
			c2.8,0,5.2,1,7.1,3c1.9,2,2.9,4.3,2.9,7.1S1331.6,518.2,1329.6,520.1z M1314.7,606.9v-72.9h15.7v72.9H1314.7z"/>
		<path class="st0" d="M1383,608.8c-10.7,0-19.8-3.7-27.2-11.1c-7.5-7.4-11.2-16.5-11.2-27.2s3.7-19.9,11.2-27.2
			c7.5-7.4,16.6-11.1,27.2-11.1c10.8,0,19.9,3.7,27.3,11.1c7.4,7.4,11.1,16.5,11.1,27.2s-3.7,19.9-11.1,27.2
			C1402.9,605.1,1393.8,608.8,1383,608.8z M1366.9,587c4.4,4.4,9.8,6.6,16.2,6.6s11.8-2.2,16.2-6.6c4.4-4.4,6.6-9.9,6.6-16.5
			c0-6.6-2.2-12.1-6.6-16.5c-4.4-4.4-9.8-6.6-16.2-6.6s-11.8,2.2-16.2,6.6c-4.4,4.4-6.6,9.9-6.6,16.5
			C1360.3,577.1,1362.5,582.6,1366.9,587z"/>
		<path class="st0" d="M1474.1,532.2c8.4,0,15.1,2.7,20.3,8c5.1,5.3,7.7,12.7,7.7,22v44.7h-15.7v-43.1c0-5.4-1.5-9.6-4.4-12.5
			c-2.9-2.9-6.9-4.4-11.9-4.4c-5.5,0-10,1.7-13.4,5.2c-3.4,3.5-5.1,8.7-5.1,15.8v39.1h-15.7v-72.9h15.7v9.3
			C1456.3,535.9,1463.8,532.2,1474.1,532.2z"/>
	</g>
	<g>
		<linearGradient id="SVGID_1_" gradientUnits="userSpaceOnUse" x1="421.4961" y1="427.762" x2="613.8131" y2="628.9009">
			<stop  offset="0" style="stop-color:#00D9E4"/>
			<stop  offset="0.8555" style="stop-color:#CC35FB"/>
		</linearGradient>
		<path class="st1" d="M528.2,648.7c-75.7,0-140.7-79.9-95.3-163.5c0,0,2.6,18.2,12.6,28.3c0,0,1.6-24.1,22.7-35
			c23.6-12.2,33.8-50.4,18.9-58.9c0,0,21.3,6.9,19.7,28.2c0,0,31-17.8,17.3-70.3c0,0,50.8,42.4,43.7,80
			c-4.7,24.6-24.3,27.4-9.7,57.3c0,0,5.1-19,30.3-24.8c0,0-19.3,25-0.7,45.1c0,0,22.2-24.8,8.9-58.9c0,0,30.3,41,31,77.1
			C628.5,595.3,599.7,648.7,528.2,648.7z"/>
		<g>
			<g>
				<path class="st2" d="M571.5,541.5L553,611.7c-0.4,1.4-1.6,2.3-3,2.3c0,0,0,0,0,0h-23.4c-1,0-1.9-0.5-2.5-1.2
					c-0.6-0.8-0.8-1.8-0.6-2.7l4.3-16.3h6.5l-3.7,14h16.9l16.9-63.9h-16.9l-2.8,10.8h-6.6l4-14.7c0.4-1.4,1.6-2.3,3-2.3h23.4
					c1,0,1.9,0.5,2.5,1.2C571.6,539.5,571.8,540.5,571.5,541.5z"/>
			</g>
			<g>
				<g>
					<path class="st2" d="M565.4,564.9l-6.2,23.4c-0.4,1.4-1.6,2.3-3,2.3h-67.8l-4.5,17.1h16.9l3.7-14h6.6l-4.8,17.9
						c-0.4,1.4-1.6,2.3-3,2.3h-23.4c-1,0-1.9-0.5-2.5-1.2c-0.6-0.8-0.8-1.8-0.6-2.7l6.2-23.4c0.4-1.4,1.6-2.3,3-2.3h67.8l4.5-17.1
						h-66.1c-1,0-1.9-0.5-2.5-1.2c-0.6-0.8-0.8-1.8-0.6-2.7l6.2-23.4c0.4-1.4,1.6-2.3,3-2.3h23.4c1,0,1.9,0.5,2.5,1.2
						c0.6,0.8,0.8,1.8,0.5,2.7l-4.3,16.3h-6.5l3.7-13.9h-16.9l-4.5,17.1h66.1c1,0,1.9,0.5,2.5,1.2
						C565.4,562.9,565.6,563.9,565.4,564.9z"/>
				</g>
			</g>
			<path class="st3" d="M559.2,588.3l-0.7,2.7l-0.4,1.4c-0.6,0.3-1.3,0.4-2,0.4h-4.7l0.6-2.1h4.1
				C557.6,590.6,558.8,589.7,559.2,588.3z"/>
			<path class="st3" d="M566.5,560.8l-0.4,1.4l-0.7,2.7c0.3-1,0.1-2-0.5-2.7c-0.6-0.8-1.5-1.2-2.5-1.2h-2.4l0.6-2.1h1.9
				C563.9,558.8,565.4,559.5,566.5,560.8z"/>
		</g>
	</g>
</g>
</svg>
