<svg width="156" height="156" viewBox="0 0 156 156" fill="none" xmlns="http://www.w3.org/2000/svg">
<path d="M55.0714 77.9375C55.0714 89.7489 45.3063 99.375 33.2857 99.375C21.2651 99.375 11.5 89.7489 11.5 77.9375C11.5 66.1261 21.2651 56.5 33.2857 56.5C45.3063 56.5 55.0714 66.1261 55.0714 77.9375ZM51.119 77.9375C51.119 68.2452 43.11 60.375 33.2857 60.375C23.4615 60.375 15.4524 68.2452 15.4524 77.9375C15.4524 87.6298 23.4615 95.5 33.2857 95.5C43.11 95.5 51.119 87.6298 51.119 77.9375Z" fill="#D9FDDF" stroke="#284878"/>
<path d="M129.071 121.938C129.071 133.749 119.306 143.375 107.286 143.375C95.2651 143.375 85.5 133.749 85.5 121.938C85.5 110.126 95.2651 100.5 107.286 100.5C119.306 100.5 129.071 110.126 129.071 121.938ZM125.119 121.938C125.119 112.245 117.11 104.375 107.286 104.375C97.4615 104.375 89.4524 112.245 89.4524 121.938C89.4524 131.63 97.4615 139.5 107.286 139.5C117.11 139.5 125.119 131.63 125.119 121.938Z" fill="#D9FDDF" stroke="#284878"/>
<path d="M140.071 26.9375C140.071 38.7489 130.306 48.375 118.286 48.375C106.265 48.375 96.5 38.7489 96.5 26.9375C96.5 15.1261 106.265 5.5 118.286 5.5C130.306 5.5 140.071 15.1261 140.071 26.9375ZM136.119 26.9375C136.119 17.2452 128.11 9.375 118.286 9.375C108.461 9.375 100.452 17.2452 100.452 26.9375C100.452 36.6298 108.461 44.5 118.286 44.5C128.11 44.5 136.119 36.6298 136.119 26.9375Z" fill="#D9FDDF" stroke="#284878"/>
<path d="M57 91L83 109" stroke="#D9FDDF" stroke-width="3"/>
<path d="M56.5 64L96.5 39" stroke="#D9FDDF" stroke-width="3"/>
<path d="M112 96L116 55.5" stroke="#D9FDDF" stroke-width="3"/>
</svg>
