<svg width="156" height="156" viewBox="0 0 156 156" fill="none" xmlns="http://www.w3.org/2000/svg">
<path d="M135.437 130.27L147.714 142.547L135.439 154.822C135.438 154.822 135.438 154.822 135.438 154.823C134.981 155.274 134.394 155.499 133.81 155.499C133.211 155.499 132.627 155.272 132.186 154.826L132.182 154.822C131.275 153.926 131.275 152.463 132.182 151.567L132.184 151.564L138.605 145.133L139.451 144.285L138.253 144.279C101.812 144.113 72.1937 114.424 72.1708 77.9284V77.9282V77.9282V77.9281V77.928V77.928V77.9279V77.9278V77.9277V77.9277V77.9276V77.9275V77.9275V77.9274V77.9273V77.9273V77.9272V77.9271V77.927V77.927V77.9269V77.9268V77.9268V77.9267V77.9266V77.9266V77.9265V77.9264V77.9263V77.9263V77.9262V77.9261V77.9261V77.926V77.9259V77.9258V77.9258V77.9257V77.9256V77.9256V77.9255V77.9254V77.9253V77.9253V77.9252V77.9251V77.9251V77.925V77.9249V77.9249V77.9248V77.9247V77.9246V77.9246V77.9245V77.9244V77.9244V77.9243V77.9242V77.9241V77.9241V77.924V77.9239V77.9239V77.9238V77.9237V77.9237V77.9236V77.9235V77.9234V77.9234V77.9233V77.9232V77.9232V77.9231V77.923V77.9229V77.9229V77.9228V77.9227V77.9227V77.9226V77.9225V77.9224V77.9224V77.9223V77.9222V77.9222V77.9221V77.922V77.922V77.9219V77.9218V77.9217V77.9217V77.9216V77.9215V77.9215V77.9214V77.9213V77.9212V77.9212V77.9211V77.921V77.921V77.9209V77.9208V77.9208V77.9207V77.9206V77.9205V77.9205V77.9204V77.9203V77.9203V77.9202V77.9201V77.92V77.92V77.9199V77.9198V77.9198V77.9197V77.9196V77.9195V77.9195V77.9194V77.9193V77.9193V77.9192V77.9191V77.9191V77.919V77.9189V77.9188V77.9188V77.9187V77.9186V77.9186V77.9185V77.9184V77.9184V77.9183V77.9182V77.9181V77.9181V77.918V77.9179V77.9179V77.9178V77.9177V77.9176V77.9176V77.9175V77.9174V77.9174V77.9173V77.9172V77.9171V77.9171V77.917V77.9169V77.9169V77.9168V77.9167V77.9166V77.9166V77.9165V77.9164V77.9164V77.9163V77.9162V77.9162V77.9161V77.916V77.9159V77.9159V77.9158V77.9157V77.9157V77.9156V77.9155V77.9155V77.9154V77.9153V77.9152V77.9152V77.9151V77.915V77.915V77.9149V77.9148V77.9147V77.9147V77.9146V77.9145V77.9145V77.9144V77.9143V77.9142V77.9142V77.9141V77.914V77.914V77.9139V77.9138V77.9137V77.9137V77.9136V77.9135V77.9135V77.9134V77.9133V77.9133V77.9132V77.9131V77.913V77.913V77.9129V77.9128V77.9128V77.9127V77.9126V77.9126V77.9125V77.9124V77.9123V77.9123V77.9122V77.9121V77.9121V77.912V77.9119V77.9118V77.9118V77.9117V77.9116V77.9116V77.9115V77.9114V77.9113V77.9113V77.9112V77.9111V77.9111V77.911V77.9109V77.9109V77.9108V77.9107V77.9106V77.9106V77.9105V77.9104V77.9104V77.9103V77.9102V77.9101V77.9101V77.91V77.9099V77.9099V77.9098V77.9097V77.9097V77.9096V77.9095V77.9094V77.9094V77.9093V77.9092V77.9092V77.9091V77.909V77.9089V77.9089V77.9088V77.9087V77.9087V77.9086V77.9085V77.9084V77.9084V77.9083V77.9082V77.9082V77.9081V77.908V77.908V77.9079V77.9078V77.9077V77.9077V77.9076V77.9075V77.9075V77.9074V77.9073V77.9072V77.9072V77.9071V77.907V77.907V77.9069V77.9068V77.9068V77.9067V77.9066V77.9065V77.9065V77.9064V77.9063V77.9063V77.9062V77.9061V77.906V77.906V77.9059V77.9058V77.9058V77.9057V77.9056V77.9055V77.9055V77.9054V77.9053V77.9053V77.9052V77.9051V77.9051V77.905V77.9049V77.9048V77.9048V77.9047V77.9046V77.9046V77.9045V77.9044V77.9044V77.9043V77.9042V77.9041V77.9041V77.904V77.9039V77.9039V77.9038V77.9037V77.9036V77.9036V77.9035V77.9034V77.9034V77.9033V77.9032V77.9031V77.9031V77.903V77.9029V77.9029V77.9028V77.9027V77.9027V77.9026V77.9025V77.9024V77.9024V77.9023V77.9022V77.9022V77.9021V77.902V77.9019V77.9019V77.9018V77.9017V77.9017V77.9016V77.9015V77.9015V77.9014V77.9013V77.9012V77.9012V77.9011V77.901V77.901V77.9009V77.9008V77.9007V77.9007V77.9006V77.9005V77.9005V77.9004V77.9003V77.9003V77.9002V77.9001V77.9V77.9V77.8999V77.8998V77.8998V77.8997V77.8996V77.8995V77.8995V77.8994V77.8993V77.8993V77.8992V77.8991V77.899V77.899V77.8989V77.8988V77.8988V77.8987V77.8986V77.8986V77.8985V77.8984V77.8983V77.8983V77.8982V77.8981V77.8981V77.898V77.8979V77.8978V77.8978V77.8977V77.8976V77.8976V77.8975V77.8974V77.8974V77.8973V77.8972V77.8971V77.8971V77.897V77.8969V77.8969V77.8968V77.8967V77.8966V77.8966V77.8965V77.8964V77.8964V77.8963V77.8962V77.8961V77.8961V77.896V77.8959V77.8959V77.8958V77.8957V77.8957V77.8956V77.8955V77.8954V77.8954V77.8953V77.8952V77.8952V77.8951V77.895V77.8949V77.8949V77.8948V77.8947V77.8947V77.8946V77.8945V77.8945V77.8944V77.8943V77.8942V77.8942V77.8941V77.894V77.894V77.8939V77.8938V77.8937V77.8937V77.8936V77.8935V77.8935V77.8934V77.8933V77.8932V77.8932V77.8931V77.893V77.893V77.8929V77.8928V77.8928V77.8927V77.8926V77.8925V77.8925V77.8924C72.1708 43.8223 44.4532 16.1098 10.3882 16.1098C9.11066 16.1098 8.08051 15.0797 8.08051 13.8022C8.08051 12.5318 9.1095 11.4995 10.3942 11.4995C46.9903 11.4995 76.7691 41.2654 76.7811 77.8562V77.8564V77.8565V77.8565V77.8566V77.8567V77.8568V77.8568V77.8569V77.857V77.857V77.8571V77.8572V77.8572V77.8573V77.8574V77.8574V77.8575V77.8576V77.8577V77.8577V77.8578V77.8579V77.8579V77.858V77.8581V77.8581V77.8582V77.8583V77.8583V77.8584V77.8585V77.8585V77.8586V77.8587V77.8587V77.8588V77.8589V77.8589V77.859V77.8591V77.8591V77.8592V77.8593V77.8593V77.8594V77.8594V77.8595V77.8596V77.8596V77.8597V77.8598V77.8598V77.8599V77.86V77.86V77.8601V77.8602V77.8602V77.8603V77.8603V77.8604V77.8605V77.8605V77.8606V77.8607V77.8607V77.8608V77.8609V77.8609V77.861V77.861V77.8611V77.8612V77.8612V77.8613V77.8614V77.8614V77.8615V77.8615V77.8616V77.8617V77.8617V77.8618V77.8619V77.8619V77.862V77.862V77.8621V77.8622V77.8622V77.8623V77.8623V77.8624V77.8625V77.8625V77.8626V77.8626V77.8627V77.8628V77.8628V77.8629V77.863V77.863V77.8631V77.8631V77.8632V77.8633V77.8633V77.8634V77.8634V77.8635V77.8636V77.8637V77.8637V77.8638V77.8639V77.8639V77.864V77.8641V77.8642V77.8642V77.8643V77.8643V77.8645V77.8645V77.8646V77.8646V77.8647V77.8648V77.8649V77.8649V77.8651V77.8651V77.8652V77.8652V77.8653V77.8654V77.8655V77.8656V77.8656V77.8657V77.8658V77.8659V77.8659V77.8661V77.8661V77.8662V77.8663V77.8664V77.8665V77.8665V77.8666V77.8667V77.8668V77.8668V77.8669V77.867V77.8671V77.8672V77.8672V77.8674V77.8674V77.8675V77.8676V77.8677V77.8678V77.8678V77.8679V77.868V77.8681V77.8681V77.8682V77.8683V77.8684V77.8685V77.8685V77.8686V77.8687V77.8688V77.8688V77.8689V77.869V77.8691V77.8691V77.8692V77.8693V77.8694V77.8694V77.8695V77.8696V77.8697V77.8697V77.8698V77.8699V77.87V77.87V77.8701V77.8701V77.8702V77.8703V77.8703V77.8704V77.8705V77.8706V77.8706V77.8707V77.8708V77.8708V77.8709V77.8709V77.871V77.8711V77.8711V77.8712V77.8712V77.8713V77.8714V77.8714V77.8715V77.8715V77.8716V77.8717V77.8717V77.8718V77.8718V77.8719V77.872V77.872V77.8721V77.8722V77.8722V77.8723V77.8723V77.8724V77.8725V77.8725V77.8726V77.8727V77.8727V77.8728V77.8728V77.8729V77.873V77.873V77.8731V77.8732V77.8732V77.8733V77.8734V77.8734V77.8735V77.8735V77.8736V77.8737V77.8737V77.8738V77.8739V77.8739V77.874V77.8741V77.8741V77.8742V77.8743V77.8743V77.8744V77.8744V77.8745V77.8746V77.8746V77.8747V77.8748V77.8748V77.8749V77.875V77.875V77.8751V77.8752V77.8752V77.8753V77.8754V77.8754V77.8755V77.8756V77.8756V77.8757V77.8758V77.8758V77.8759V77.876V77.876V77.8761V77.8762V77.8762V77.8763V77.8764V77.8764V77.8765V77.8766V77.8767V77.8767V77.8768V77.8769V77.8769V77.877V77.8771V77.8771V77.8772V77.8773V77.8773V77.8774V77.8775V77.8776V77.8776V77.8777V77.8778V77.8778V77.8779V77.878V77.8781V77.8781V77.8782V77.8783V77.8783V77.8784V77.8785V77.8786V77.8786V77.8787V77.8788V77.8789V77.8789V77.879V77.8791V77.8791V77.8792V77.8793V77.8794V77.8794V77.8795V77.8796V77.8797V77.8797V77.8798V77.8799V77.88V77.88V77.8801V77.8802V77.8803V77.8803V77.8804V77.8805V77.8806V77.8807V77.8807V77.8808V77.8809V77.881V77.881V77.8811V77.8812V77.8813V77.8813V77.8814V77.8815V77.8816V77.8817V77.8817V77.8818V77.8819V77.882V77.8821V77.8821V77.8822V77.8823V77.8824V77.8825V77.8826V77.8826V77.8827V77.8828V77.8829V77.883V77.883V77.8831V77.8832V77.8833V77.8834V77.8835V77.8835V77.8836V77.8837V77.8838V77.8839V77.884V77.884V77.8841V77.8842V77.8843V77.8844V77.8845V77.8846V77.8846V77.8847V77.8848V77.8849V77.885V77.8851V77.8852V77.8853V77.8853V77.8854V77.8855V77.8856V77.8857V77.8858V77.8859V77.886V77.8861V77.8861V77.8862V77.8863V77.8864V77.8865V77.8866V77.8867V77.8868V77.8869V77.887V77.8871V77.8871V77.8872V77.8873V77.8874V77.8875V77.8876V77.8877V77.8878V77.8879V77.888V77.8881V77.8882V77.8883V77.8884V77.8885V77.8886V77.8887V77.8888V77.8889V77.8889V77.889V77.8891V77.8892V77.8893V77.8894V77.8895V77.8896V77.8897V77.8898V77.8899V77.89V77.8901V77.8902V77.8903V77.8904V77.8905V77.8906V77.8907V77.8908V77.8909V77.891V77.8912V77.8913V77.8914V77.8915V77.8916V77.8917V77.8918V77.8919V77.892V77.8921V77.8922V77.8923V77.8924C76.7811 111.443 103.671 138.774 137.027 139.602L138.274 139.633L137.393 138.75L132.185 133.523L132.183 133.521C131.27 132.618 131.271 131.162 132.182 130.267L132.185 130.264C133.081 129.367 134.545 129.368 135.435 130.268L135.437 130.27ZM137.621 17.0171L138.497 16.138L137.256 16.1643C110.98 16.721 88.7131 33.7518 80.3573 57.3477C79.708 55.1088 78.9648 52.9078 78.1001 50.7579C88.4407 27.8101 111.358 11.7266 138.069 11.5246L139.263 11.5156L138.418 10.6711L132.184 4.43621L132.182 4.43428C131.275 3.53788 131.275 2.0755 132.182 1.17912L132.186 1.1752C133.075 0.27548 134.538 0.27406 135.436 1.17618L135.437 1.17716L147.714 13.4542L135.439 25.7293C135.438 25.7295 135.438 25.7298 135.438 25.73C134.981 26.1814 134.394 26.4064 133.81 26.4064C133.211 26.4064 132.627 26.1799 132.186 25.7332L132.182 25.7293C131.276 24.8334 131.274 23.3764 132.183 22.4732L132.184 22.4716L137.621 17.0171ZM8.0785 141.989C8.0785 140.711 9.11013 139.681 10.3812 139.681C37.2465 139.681 60.1122 122.431 68.5933 98.4331C69.2442 100.674 69.9922 102.879 70.8617 105.029C60.4675 128.136 37.3117 144.296 10.3812 144.296C9.10923 144.296 8.0785 143.267 8.0785 141.989Z" fill="#D9FDDF" stroke="#284878"/>
</svg>
