<svg width="156" height="156" viewBox="0 0 156 156" fill="none" xmlns="http://www.w3.org/2000/svg">
<g clip-path="url(#clip0_19_39)">
<path d="M98.5475 21.9375C98.5475 33.7489 88.7824 43.375 76.7618 43.375C64.7412 43.375 54.9761 33.7489 54.9761 21.9375C54.9761 10.1261 64.7412 0.5 76.7618 0.5C88.7824 0.5 98.5475 10.1261 98.5475 21.9375ZM94.5951 21.9375C94.5951 12.2452 86.586 4.375 76.7618 4.375C66.9375 4.375 58.9285 12.2452 58.9285 21.9375C58.9285 31.6298 66.9375 39.5 76.7618 39.5C86.586 39.5 94.5951 31.6298 94.5951 21.9375Z" fill="#D9FDDF" stroke="#284878"/>
<path d="M48.7553 125.287L48.7546 125.289C48.403 125.882 47.7559 126.25 47.0479 126.25H2.47646C1.7714 126.25 1.12349 125.883 0.769078 125.287C0.415799 124.694 0.409872 123.966 0.753434 123.367L0.753817 123.366L23.0395 84.3661L23.0399 84.3654C23.3679 83.7892 24.0365 83.4663 24.7612 83.4663C25.4859 83.4663 26.1555 83.7892 26.4847 84.3659L26.4848 84.3661L48.7705 123.366L48.7713 123.367C49.1142 123.963 49.1087 124.694 48.7553 125.287ZM6.27662 121.627L5.84915 122.375H6.71074H42.8136H43.6752L43.2477 121.627L25.1963 90.0368L24.7622 89.2771L24.3281 90.0368L6.27662 121.627Z" fill="#D9FDDF" stroke="#284878"/>
<path d="M151.048 122.375H151.548V121.875V87.75V87.25H151.048H116.381H115.881V87.75V121.875V122.375H116.381H151.048ZM153.524 83.375C154.622 83.375 155.5 84.2505 155.5 85.3125V124.312C155.5 125.374 154.622 126.25 153.524 126.25H113.905C112.806 126.25 111.928 125.374 111.928 124.312V85.3125C111.928 84.2505 112.806 83.375 113.905 83.375H153.524Z" fill="#D9FDDF" stroke="#284878"/>
<path d="M39.7009 136.961L42.0688 133.399C52.4719 139.855 64.5018 143.265 76.8985 143.265C89.7711 143.265 102.193 139.609 112.857 132.685L115.296 136.198C103.911 143.594 90.6466 147.5 76.8985 147.5C63.6598 147.5 50.8105 143.858 39.7009 136.961Z" fill="#D9FDDF" stroke="#284878"/>
<path d="M105.671 23.5043L107.569 19.6684C129.848 30.6999 144.322 52.7094 145.479 77.3143L141.166 77.4811C140.069 54.4449 126.516 33.8399 105.671 23.5043Z" fill="#D9FDDF" stroke="#284878"/>
<path d="M12.8109 80.5207C12.8109 82.0612 12.8674 83.6059 12.9764 85.122L8.67776 85.4621C8.55863 83.8334 8.5 82.1751 8.5 80.5207C8.5 54.541 23.0194 31.2732 46.4359 19.6687L48.3298 23.5034C26.4103 34.3792 12.8109 56.1826 12.8109 80.5207Z" fill="#D9FDDF" stroke="#284878"/>
</g>
<defs>
<clipPath id="clip0_19_39">
<rect width="156" height="156" fill="white"/>
</clipPath>
</defs>
</svg>
