<svg width="156" height="156" viewBox="0 0 156 156" fill="none" xmlns="http://www.w3.org/2000/svg">
<mask id="path-1-inside-1_19_53" fill="white">
<path d="M155.069 45.8338C155.06 45.775 155.049 45.7165 155.036 45.6583C154.162 41.0079 152.713 36.5591 150.764 32.3877C150.71 32.2286 150.639 32.0751 150.549 31.9288C148.737 28.1388 146.51 24.5828 143.929 21.3202C143.833 21.1596 143.719 21.0073 143.581 20.869C143.562 20.8504 143.542 20.8345 143.523 20.8166C140.987 17.6859 138.121 14.8334 134.978 12.3118C134.96 12.2929 134.944 12.2731 134.926 12.2545C134.784 12.1129 134.627 11.9959 134.462 11.8993C131.186 9.3338 127.617 7.12634 123.816 5.33203C123.672 5.24337 123.519 5.17298 123.362 5.11966C119.167 3.1849 114.694 1.75195 110.02 0.903094C109.961 0.889992 109.903 0.879023 109.844 0.870492C106.641 0.298594 103.345 0 99.9805 0C97.3927 0 94.8471 0.180375 92.352 0.52132C92.3441 0.52193 92.3362 0.523758 92.3279 0.524672C68.6677 3.77142 49.6702 21.8464 45.0432 45.0447C38.9701 46.2546 33.1217 48.4627 27.7595 51.6016C26.6681 52.2405 26.3015 53.643 26.9402 54.7344C27.5791 55.8258 28.9819 56.1923 30.0727 55.5537C34.5092 52.9565 39.3099 51.054 44.2976 49.8908C44.0776 51.9041 43.9609 53.9483 43.9609 56.0195C43.9609 59.3812 44.2592 62.6745 44.8296 65.8744C44.8387 65.9371 44.85 65.9996 44.8643 66.0614C45.7132 70.7341 47.1458 75.2054 49.08 79.3994C49.1333 79.5573 49.2043 79.7099 49.293 79.8552C51.0876 83.6556 53.2944 87.2241 55.8599 90.4998C55.9568 90.6652 56.0735 90.8222 56.2155 90.9642C56.2334 90.9824 56.2532 90.9977 56.2718 91.015C58.7937 94.1582 61.6462 97.0247 64.7775 99.5612C64.7955 99.5804 64.8113 99.6005 64.8299 99.6191C64.9679 99.7571 65.1202 99.8711 65.2805 99.9664C68.5434 102.548 72.0994 104.775 75.8894 106.588C76.0357 106.677 76.1895 106.748 76.3483 106.802C80.5204 108.751 84.9697 110.201 89.6211 111.074C89.6781 111.088 89.7353 111.099 89.7929 111.107C93.0976 111.717 96.5021 112.038 99.9805 112.038C102.052 112.038 104.097 111.922 106.111 111.701C100.792 134.437 80.3522 151.42 56.0192 151.42C27.655 151.42 4.57884 128.344 4.57884 99.9795C4.57884 85.6769 10.3088 72.3907 20.713 62.5679C21.6325 61.6998 21.6739 60.2507 20.8062 59.3312C19.9378 58.4116 18.4887 58.3702 17.5695 59.238C12.0799 64.4207 7.75948 70.5373 4.72875 77.418C1.59138 84.5438 0 92.1345 0 99.9805C0 130.87 25.1306 156 56.0198 156C83.1535 156 105.84 136.608 110.957 110.957C134.291 106.302 152.443 87.1098 155.534 63.2565C155.535 63.2425 155.538 63.2288 155.539 63.215C155.843 60.8586 156 58.457 156 56.0195C156 52.5418 155.679 49.1379 155.069 45.8338ZM141.71 25.977C143.239 28.0943 144.612 30.3304 145.809 32.671L105.237 73.2438C103.984 70.948 102.575 68.75 101.026 66.662L141.71 25.977ZM138.85 22.3607L98.1313 63.0795C96.4519 61.1651 94.646 59.3644 92.7234 57.6941L133.438 16.9796C135.371 18.6383 137.181 20.4366 138.85 22.3607ZM129.808 14.1329L89.1232 54.8182C87.0261 53.2767 84.8189 51.8764 82.5146 50.6339L123.081 10.0672C125.432 11.2536 127.681 12.6135 129.808 14.1329ZM110.266 5.61295C113.138 6.19856 115.924 7.02518 118.603 8.06904L78.1499 48.5215C75.5668 47.4063 72.8849 46.4786 70.1196 45.7589L110.266 5.61295ZM93.6393 4.97037C95.7179 4.71352 97.8339 4.57915 99.9808 4.57915C101.542 4.57915 103.086 4.65288 104.613 4.78969L64.7586 44.6437C61.9104 44.1958 58.9921 43.9609 56.0198 43.9609C55.5546 43.9609 55.0899 43.9725 54.6256 43.9841L93.6393 4.97037ZM85.4648 6.66809L50.629 41.5042C55.5531 24.7915 68.7524 11.5918 85.4648 6.66809ZM48.7512 60.6517C48.6141 59.1249 48.5404 57.5808 48.5404 56.0195C48.5404 53.8727 48.6747 51.7567 48.9316 49.6781L49.6723 48.9374C51.7713 48.6772 53.8907 48.5401 56.0201 48.5401C57.5814 48.5401 59.1255 48.6138 60.652 48.7506L48.7512 60.6517ZM49.5739 66.3046L66.3046 49.5739C69.1775 50.1592 71.9632 50.9858 74.6414 52.03L52.0297 74.642C50.9861 71.9635 50.1592 69.1775 49.5739 66.3046ZM58.0942 85.8472C56.5744 83.7193 55.2146 81.4707 54.0281 79.12L79.1203 54.0278C81.471 55.2146 83.7196 56.5741 85.8475 58.0939L58.0942 85.8472ZM60.9405 89.4773L89.4773 60.9405C91.4102 62.5996 93.2204 64.3975 94.8891 66.3216L66.3219 94.8888C64.3975 93.2204 62.5996 91.4102 60.9405 89.4773ZM69.938 97.7492L97.7495 69.938C99.2782 72.0552 100.651 74.291 101.849 76.6316L76.6313 101.849C74.291 100.651 72.0549 99.2775 69.938 97.7492ZM89.3886 106.361C86.5285 105.76 83.7546 104.922 81.0898 103.866L103.867 81.0898C104.922 83.7546 105.76 86.5285 106.361 89.3886L89.3886 106.361ZM107.117 105.902L105.902 107.117C103.958 107.341 101.983 107.46 99.9805 107.46C98.3028 107.46 96.6444 107.376 95.0074 107.219L107.219 95.0074C107.376 96.6441 107.46 98.3025 107.46 99.9805C107.46 101.983 107.341 103.958 107.117 105.902ZM110.162 85.5879C109.429 82.8336 108.491 80.1627 107.365 77.5917L147.828 37.1295C148.883 39.7943 149.721 42.5682 150.322 45.428L110.162 85.5879ZM113.97 105.526L149.487 70.008C144.638 87.147 131.108 100.677 113.97 105.526ZM151.078 61.9408L112.027 100.992C112.033 100.655 112.039 100.319 112.039 99.9802C112.039 96.8967 111.785 93.8721 111.303 90.9227L151.18 51.0464C151.338 52.6832 151.421 54.3416 151.421 56.0195C151.421 58.0222 151.302 59.9975 151.078 61.9408Z"/>
</mask>
<path d="M155.069 45.8338C155.06 45.775 155.049 45.7165 155.036 45.6583C154.162 41.0079 152.713 36.5591 150.764 32.3877C150.71 32.2286 150.639 32.0751 150.549 31.9288C148.737 28.1388 146.51 24.5828 143.929 21.3202C143.833 21.1596 143.719 21.0073 143.581 20.869C143.562 20.8504 143.542 20.8345 143.523 20.8166C140.987 17.6859 138.121 14.8334 134.978 12.3118C134.96 12.2929 134.944 12.2731 134.926 12.2545C134.784 12.1129 134.627 11.9959 134.462 11.8993C131.186 9.3338 127.617 7.12634 123.816 5.33203C123.672 5.24337 123.519 5.17298 123.362 5.11966C119.167 3.1849 114.694 1.75195 110.02 0.903094C109.961 0.889992 109.903 0.879023 109.844 0.870492C106.641 0.298594 103.345 0 99.9805 0C97.3927 0 94.8471 0.180375 92.352 0.52132C92.3441 0.52193 92.3362 0.523758 92.3279 0.524672C68.6677 3.77142 49.6702 21.8464 45.0432 45.0447C38.9701 46.2546 33.1217 48.4627 27.7595 51.6016C26.6681 52.2405 26.3015 53.643 26.9402 54.7344C27.5791 55.8258 28.9819 56.1923 30.0727 55.5537C34.5092 52.9565 39.3099 51.054 44.2976 49.8908C44.0776 51.9041 43.9609 53.9483 43.9609 56.0195C43.9609 59.3812 44.2592 62.6745 44.8296 65.8744C44.8387 65.9371 44.85 65.9996 44.8643 66.0614C45.7132 70.7341 47.1458 75.2054 49.08 79.3994C49.1333 79.5573 49.2043 79.7099 49.293 79.8552C51.0876 83.6556 53.2944 87.2241 55.8599 90.4998C55.9568 90.6652 56.0735 90.8222 56.2155 90.9642C56.2334 90.9824 56.2532 90.9977 56.2718 91.015C58.7937 94.1582 61.6462 97.0247 64.7775 99.5612C64.7955 99.5804 64.8113 99.6005 64.8299 99.6191C64.9679 99.7571 65.1202 99.8711 65.2805 99.9664C68.5434 102.548 72.0994 104.775 75.8894 106.588C76.0357 106.677 76.1895 106.748 76.3483 106.802C80.5204 108.751 84.9697 110.201 89.6211 111.074C89.6781 111.088 89.7353 111.099 89.7929 111.107C93.0976 111.717 96.5021 112.038 99.9805 112.038C102.052 112.038 104.097 111.922 106.111 111.701C100.792 134.437 80.3522 151.42 56.0192 151.42C27.655 151.42 4.57884 128.344 4.57884 99.9795C4.57884 85.6769 10.3088 72.3907 20.713 62.5679C21.6325 61.6998 21.6739 60.2507 20.8062 59.3312C19.9378 58.4116 18.4887 58.3702 17.5695 59.238C12.0799 64.4207 7.75948 70.5373 4.72875 77.418C1.59138 84.5438 0 92.1345 0 99.9805C0 130.87 25.1306 156 56.0198 156C83.1535 156 105.84 136.608 110.957 110.957C134.291 106.302 152.443 87.1098 155.534 63.2565C155.535 63.2425 155.538 63.2288 155.539 63.215C155.843 60.8586 156 58.457 156 56.0195C156 52.5418 155.679 49.1379 155.069 45.8338ZM141.71 25.977C143.239 28.0943 144.612 30.3304 145.809 32.671L105.237 73.2438C103.984 70.948 102.575 68.75 101.026 66.662L141.71 25.977ZM138.85 22.3607L98.1313 63.0795C96.4519 61.1651 94.646 59.3644 92.7234 57.6941L133.438 16.9796C135.371 18.6383 137.181 20.4366 138.85 22.3607ZM129.808 14.1329L89.1232 54.8182C87.0261 53.2767 84.8189 51.8764 82.5146 50.6339L123.081 10.0672C125.432 11.2536 127.681 12.6135 129.808 14.1329ZM110.266 5.61295C113.138 6.19856 115.924 7.02518 118.603 8.06904L78.1499 48.5215C75.5668 47.4063 72.8849 46.4786 70.1196 45.7589L110.266 5.61295ZM93.6393 4.97037C95.7179 4.71352 97.8339 4.57915 99.9808 4.57915C101.542 4.57915 103.086 4.65288 104.613 4.78969L64.7586 44.6437C61.9104 44.1958 58.9921 43.9609 56.0198 43.9609C55.5546 43.9609 55.0899 43.9725 54.6256 43.9841L93.6393 4.97037ZM85.4648 6.66809L50.629 41.5042C55.5531 24.7915 68.7524 11.5918 85.4648 6.66809ZM48.7512 60.6517C48.6141 59.1249 48.5404 57.5808 48.5404 56.0195C48.5404 53.8727 48.6747 51.7567 48.9316 49.6781L49.6723 48.9374C51.7713 48.6772 53.8907 48.5401 56.0201 48.5401C57.5814 48.5401 59.1255 48.6138 60.652 48.7506L48.7512 60.6517ZM49.5739 66.3046L66.3046 49.5739C69.1775 50.1592 71.9632 50.9858 74.6414 52.03L52.0297 74.642C50.9861 71.9635 50.1592 69.1775 49.5739 66.3046ZM58.0942 85.8472C56.5744 83.7193 55.2146 81.4707 54.0281 79.12L79.1203 54.0278C81.471 55.2146 83.7196 56.5741 85.8475 58.0939L58.0942 85.8472ZM60.9405 89.4773L89.4773 60.9405C91.4102 62.5996 93.2204 64.3975 94.8891 66.3216L66.3219 94.8888C64.3975 93.2204 62.5996 91.4102 60.9405 89.4773ZM69.938 97.7492L97.7495 69.938C99.2782 72.0552 100.651 74.291 101.849 76.6316L76.6313 101.849C74.291 100.651 72.0549 99.2775 69.938 97.7492ZM89.3886 106.361C86.5285 105.76 83.7546 104.922 81.0898 103.866L103.867 81.0898C104.922 83.7546 105.76 86.5285 106.361 89.3886L89.3886 106.361ZM107.117 105.902L105.902 107.117C103.958 107.341 101.983 107.46 99.9805 107.46C98.3028 107.46 96.6444 107.376 95.0074 107.219L107.219 95.0074C107.376 96.6441 107.46 98.3025 107.46 99.9805C107.46 101.983 107.341 103.958 107.117 105.902ZM110.162 85.5879C109.429 82.8336 108.491 80.1627 107.365 77.5917L147.828 37.1295C148.883 39.7943 149.721 42.5682 150.322 45.428L110.162 85.5879ZM113.97 105.526L149.487 70.008C144.638 87.147 131.108 100.677 113.97 105.526ZM151.078 61.9408L112.027 100.992C112.033 100.655 112.039 100.319 112.039 99.9802C112.039 96.8967 111.785 93.8721 111.303 90.9227L151.18 51.0464C151.338 52.6832 151.421 54.3416 151.421 56.0195C151.421 58.0222 151.302 59.9975 151.078 61.9408Z" fill="#D9FDDF" stroke="#284878" stroke-width="2" mask="url(#path-1-inside-1_19_53)"/>
</svg>
