<?xml version="1.0" encoding="utf-8"?>
<!-- Generator: Adobe Illustrator 24.3.0, SVG Export Plug-In . SVG Version: 6.00 Build 0)  -->
<svg version="1.1" id="Layer_1" xmlns="http://www.w3.org/2000/svg" xmlns:xlink="http://www.w3.org/1999/xlink" x="0px" y="0px"
	 viewBox="0 0 512 512" style="enable-background:new 0 0 512 512;" xml:space="preserve">
<style type="text/css">
	.st0{fill:url(#SVGID_1_);}
	.st1{fill:#FFFFFF;}
	.st2{fill:#E0E0E0;}
</style>
<g>
	<g>
		<linearGradient id="SVGID_1_" gradientUnits="userSpaceOnUse" x1="118.9679" y1="140.5859" x2="379.1334" y2="412.6856">
			<stop  offset="0" style="stop-color:#00D9E4"/>
			<stop  offset="0.8555" style="stop-color:#CC35FB"/>
		</linearGradient>
		<path class="st0" d="M263.3,439.5c-102.4,0-190.3-108-128.9-221.2c0,0,3.5,24.7,17.1,38.2c0,0,2.1-32.6,30.7-47.3
			c31.9-16.4,45.7-68.2,25.6-79.7c0,0,28.8,9.3,26.7,38.1c0,0,41.9-24.1,23.4-95.1c0,0,68.8,57.4,59.1,108.2
			c-6.3,33.3-32.8,37-13.1,77.5c0,0,6.9-25.7,41-33.5c0,0-26.1,33.8-1,61c0,0,30.1-33.5,12-79.6c0,0,40.9,55.5,41.9,104.3
			C399,367.3,360.1,439.5,263.3,439.5z"/>
		<g>
			<g>
				<path class="st1" d="M322,294.4l-25.1,95c-0.5,1.9-2.2,3.2-4.1,3.2c0,0,0,0,0,0h-31.7c-1.3,0-2.6-0.6-3.4-1.7
					c-0.8-1-1.1-2.4-0.7-3.7l5.8-22.1h8.8l-5,18.9h22.8l22.8-86.4h-22.8l-3.9,14.6h-8.9l5.4-19.9c0.5-1.9,2.2-3.2,4.1-3.2h31.7
					c1.3,0,2.6,0.6,3.4,1.7C322,291.8,322.3,293.1,322,294.4z"/>
			</g>
			<g>
				<g>
					<path class="st1" d="M313.6,326.1l-8.4,31.7c-0.5,1.9-2.2,3.2-4.1,3.2h-91.7l-6.1,23.1h22.8l5-18.9h8.9l-6.5,24.2
						c-0.5,1.9-2.2,3.2-4.1,3.2h-31.7c-1.3,0-2.6-0.6-3.4-1.7c-0.8-1-1.1-2.4-0.7-3.7l8.4-31.7c0.5-1.9,2.2-3.2,4.1-3.2h91.7
						l6.1-23.1h-89.4c-1.3,0-2.6-0.6-3.4-1.7c-0.8-1-1.1-2.4-0.7-3.7l8.4-31.7c0.5-1.9,2.2-3.2,4.1-3.2h31.7c1.3,0,2.6,0.6,3.4,1.7
						c0.8,1,1.1,2.4,0.7,3.7l-5.9,22H244l5-18.9h-22.8l-6.1,23.1h89.4c1.3,0,2.6,0.6,3.4,1.7C313.7,323.4,313.9,324.8,313.6,326.1z"
						/>
				</g>
			</g>
			<path class="st2" d="M305.2,357.7l-0.9,3.6l-0.5,1.9c-0.8,0.4-1.7,0.5-2.7,0.5h-6.3l0.7-2.9h5.5
				C303,360.9,304.7,359.6,305.2,357.7z"/>
			<path class="st2" d="M315.1,320.5l-0.5,1.9l-1,3.6c0.3-1.3,0.1-2.6-0.7-3.7c-0.8-1-2.1-1.7-3.4-1.7h-3.3l0.7-2.9h2.5
				C311.6,317.8,313.7,318.8,315.1,320.5z"/>
		</g>
	</g>
</g>
</svg>
